<svg style="display:none" xmlns="http://www.w3.org/2000/svg" xmlns:xlink="http://www.w3.org/1999/xlink" version="1.1">
	<symbol id="search" viewBox="0 0 32 32" fill="none" xmlns="http://www.w3.org/2000/svg">
	<path d="M25 24.9996L19.724 19.7236" stroke="currentColor" stroke-width="1.5"/>
	<path d="M14.448 21.896C18.5614 21.896 21.896 18.5614 21.896 14.448C21.896 10.3346 18.5614 7 14.448 7C10.3346 7 7 10.3346 7 14.448C7 18.5614 10.3346 21.896 14.448 21.896Z" stroke="currentColor" stroke-width="1.5"/></symbol>
	<symbol id="shopping_bag" viewBox="0 0 32 32" fill="none" xmlns="http://www.w3.org/2000/svg">
	<path d="M11.9133 9.77888H8.77625H8.58632L8.57652 9.96855L7.80027 24.9897L7.7894 25.2H8H24H24.2105L24.1997 24.9898L23.4469 10.226V9.95594V9.75594H23.2469H20.0516C20.0323 8.71326 19.6054 7.71773 18.8596 6.97957C18.0962 6.22407 17.0613 5.8 15.9826 5.8C14.9039 5.8 13.869 6.22407 13.1057 6.97957C12.3544 7.72314 11.9267 8.72786 11.9133 9.77888ZM12.8932 9.75594C12.9123 8.97273 13.235 8.22519 13.7967 7.66928C14.3761 7.09584 15.1623 6.77333 15.9826 6.77333C16.8029 6.77333 17.5892 7.09584 18.1686 7.66928C18.7303 8.22519 19.053 8.97273 19.0721 9.75594H12.8932ZM8.82451 24.2152L9.51084 10.7637H11.3483H22.5239L23.2102 24.2152H8.82451Z" fill="currentColor" stroke="currentColor" stroke-width="0.4"/></symbol>
	<symbol id="menu" xmlns="http://www.w3.org/2000/svg" viewBox="0 -960 960 960" fill="currentColor"><path d="M120-240v-80h720v80H120Zm0-200v-80h720v80H120Zm0-200v-80h720v80H120Z"/></symbol>
	<symbol id="account_circle" viewBox="0 0 24 24" fill="none" xmlns="http://www.w3.org/2000/svg">
	<g clip-path="url(#clip0_3313_3317)">
	<path d="M11.75 10.6431C12.4069 10.6431 13.0491 10.4483 13.5954 10.0833C14.1416 9.71836 14.5673 9.1996 14.8187 8.59267C15.0701 7.98573 15.1359 7.31788 15.0077 6.67356C14.8796 6.02924 14.5632 5.43739 14.0987 4.97286C13.6342 4.50833 13.0423 4.19199 12.398 4.06382C11.7537 3.93566 11.0858 4.00144 10.4789 4.25284C9.87196 4.50424 9.3532 4.92997 8.98822 5.4762C8.62325 6.02243 8.42844 6.66462 8.42844 7.32156C8.42748 7.75802 8.51274 8.19038 8.67932 8.5938C8.8459 8.99723 9.09053 9.36377 9.39916 9.6724C9.70779 9.98103 10.0743 10.2257 10.4778 10.3922C10.8812 10.5588 11.3135 10.6441 11.75 10.6431ZM11.75 12.8578C9.16515 12.8578 4 14.1534 4 16.7328V19.5H19.5V16.7319C19.5 14.1525 14.3349 12.8569 11.75 12.8569V12.8578Z" stroke="currentColor" stroke-width="1.5"/>
	</g>
	<defs>
	<clipPath id="clip0_3313_3317">
	<rect width="24" height="24" fill="white"/>
	</clipPath>
	</defs></symbol>
	<symbol id="close" xmlns="http://www.w3.org/2000/svg" viewBox="0 -960 960 960" fill="currentColor"><path d="m256-200-56-56 224-224-224-224 56-56 224 224 224-224 56 56-224 224 224 224-56 56-224-224-224 224Z"/></symbol>
	<symbol id="chevron-right" xmlns="http://www.w3.org/2000/svg" viewBox="0 -960 960 960" fill="currentColor"><path d="M504-480 320-664l56-56 240 240-240 240-56-56 184-184Z"/></symbol>
	<symbol id="favorite" xmlns="http://www.w3.org/2000/svg" viewBox="0 -960 960 960" fill="currentColor"><path d="m480-120-58-52q-101-91-167-157T150-447.5Q111-500 95.5-544T80-634q0-94 63-157t157-63q52 0 99 22t81 62q34-40 81-62t99-22q94 0 157 63t63 157q0 46-15.5 90T810-447.5Q771-395 705-329T538-172l-58 52Zm0-108q96-86 158-147.5t98-107q36-45.5 50-81t14-70.5q0-60-40-100t-100-40q-47 0-87 26.5T518-680h-76q-15-41-55-67.5T300-774q-60 0-100 40t-40 100q0 35 14 70.5t50 81q36 45.5 98 107T480-228Zm0-273Z"/></symbol>
	<symbol id="home_pin" xmlns="http://www.w3.org/2000/svg" viewBox="0 -960 960 960" fill="currentColor"><path d="M360-440h80v-110h80v110h80v-190l-120-80-120 80v190Zm120 254q122-112 181-203.5T720-552q0-109-69.5-178.5T480-800q-101 0-170.5 69.5T240-552q0 71 59 162.5T480-186Zm0 106Q319-217 239.5-334.5T160-552q0-150 96.5-239T480-880q127 0 223.5 89T800-552q0 100-79.5 217.5T480-80Zm0-480Z"/></symbol>
	<symbol id="call" xmlns="http://www.w3.org/2000/svg" viewBox="0 -960 960 960" fill="currentColor"><path d="M798-120q-125 0-247-54.5T329-329Q229-429 174.5-551T120-798q0-18 12-30t30-12h162q14 0 25 9.5t13 22.5l26 140q2 16-1 27t-11 19l-97 98q20 37 47.5 71.5T387-386q31 31 65 57.5t72 48.5l94-94q9-9 23.5-13.5T670-390l138 28q14 4 23 14.5t9 23.5v162q0 18-12 30t-30 12ZM241-600l66-66-17-94h-89q5 41 14 81t26 79Zm358 358q39 17 79.5 27t81.5 13v-88l-94-19-67 67ZM241-600Zm358 358Z"/></symbol>
	<symbol id="local_shipping" xmlns="http://www.w3.org/2000/svg" viewBox="0 -960 960 960" fill="currentColor"><path d="M240-160q-50 0-85-35t-35-85H40v-440q0-33 23.5-56.5T120-800h560v160h120l120 160v200h-80q0 50-35 85t-85 35q-50 0-85-35t-35-85H360q0 50-35 85t-85 35Zm0-80q17 0 28.5-11.5T280-280q0-17-11.5-28.5T240-320q-17 0-28.5 11.5T200-280q0 17 11.5 28.5T240-240ZM120-360h32q17-18 39-29t49-11q27 0 49 11t39 29h272v-360H120v360Zm600 120q17 0 28.5-11.5T760-280q0-17-11.5-28.5T720-320q-17 0-28.5 11.5T680-280q0 17 11.5 28.5T720-240Zm-40-200h170l-90-120h-80v120ZM360-540Z"/></symbol>
	<symbol id="pan_zoom" xmlns="http://www.w3.org/2000/svg" viewBox="0 -960 960 960" fill="currentColor"><path d="M120-120v-240h80v104l124-124 56 56-124 124h104v80H120Zm516-460-56-56 124-124H600v-80h240v240h-80v-104L636-580Z"/></symbol>
	<symbol id="share" xmlns="http://www.w3.org/2000/svg" viewBox="0 -960 960 960" fill="currentColor"><path d="M720-80q-50 0-85-35t-35-85q0-7 1-14.5t3-13.5L322-392q-17 15-38 23.5t-44 8.5q-50 0-85-35t-35-85q0-50 35-85t85-35q23 0 44 8.5t38 23.5l282-164q-2-6-3-13.5t-1-14.5q0-50 35-85t85-35q50 0 85 35t35 85q0 50-35 85t-85 35q-23 0-44-8.5T638-672L356-508q2 6 3 13.5t1 14.5q0 7-1 14.5t-3 13.5l282 164q17-15 38-23.5t44-8.5q50 0 85 35t35 85q0 50-35 85t-85 35Zm0-640q17 0 28.5-11.5T760-760q0-17-11.5-28.5T720-800q-17 0-28.5 11.5T680-760q0 17 11.5 28.5T720-720ZM240-440q17 0 28.5-11.5T280-480q0-17-11.5-28.5T240-520q-17 0-28.5 11.5T200-480q0 17 11.5 28.5T240-440Zm480 280q17 0 28.5-11.5T760-200q0-17-11.5-28.5T720-240q-17 0-28.5 11.5T680-200q0 17 11.5 28.5T720-160Zm0-600ZM240-480Zm480 280Z"/></symbol>
	<symbol id="sell" xmlns="http://www.w3.org/2000/svg" viewBox="0 -960 960 960" fill="currentColor"><path d="M856-390 570-104q-12 12-27 18t-30 6q-15 0-30-6t-27-18L103-457q-11-11-17-25.5T80-513v-287q0-33 23.5-56.5T160-880h287q16 0 31 6.5t26 17.5l352 353q12 12 17.5 27t5.5 30q0 15-5.5 29.5T856-390ZM513-160l286-286-353-354H160v286l353 354ZM260-640q25 0 42.5-17.5T320-700q0-25-17.5-42.5T260-760q-25 0-42.5 17.5T200-700q0 25 17.5 42.5T260-640Zm220 160Z"/></symbol>
	<symbol id="check-circle" xmlns="http://www.w3.org/2000/svg" viewBox="0 -960 960 960" fill="currentColor"><path d="m424-296 282-282-56-56-226 226-114-114-56 56 170 170Zm56 216q-83 0-156-31.5T197-197q-54-54-85.5-127T80-480q0-83 31.5-156T197-763q54-54 127-85.5T480-880q83 0 156 31.5T763-763q54 54 85.5 127T880-480q0 83-31.5 156T763-197q-54 54-127 85.5T480-80Zm0-80q134 0 227-93t93-227q0-134-93-227t-227-93q-134 0-227 93t-93 227q0 134 93 227t227 93Zm0-320Z"/></symbol>
	<symbol id="error" xmlns="http://www.w3.org/2000/svg" viewBox="0 -960 960 960" fill="currentColor"><path d="M480-280q17 0 28.5-11.5T520-320q0-17-11.5-28.5T480-360q-17 0-28.5 11.5T440-320q0 17 11.5 28.5T480-280Zm-40-160h80v-240h-80v240Zm40 360q-83 0-156-31.5T197-197q-54-54-85.5-127T80-480q0-83 31.5-156T197-763q54-54 127-85.5T480-880q83 0 156 31.5T763-763q54 54 85.5 127T880-480q0 83-31.5 156T763-197q-54 54-127 85.5T480-80Zm0-80q134 0 227-93t93-227q0-134-93-227t-227-93q-134 0-227 93t-93 227q0 134 93 227t227 93Zm0-320Z"/></symbol>
	<symbol id="facebook" viewBox="0 0 12 18" fill="none" xmlns="http://www.w3.org/2000/svg">
	<path d="M7.70987 17.9991V9.8031H10.8058L11.2659 6.5941H7.70987V4.5501C7.70987 3.6241 7.99875 2.9901 9.48679 2.9901H11.3723V0.129103C10.4553 0.0411031 9.53269 -0.000896911 8.61009 0.00210309C5.87361 0.00210309 3.9948 1.4941 3.9948 4.2331V6.5881H0.919067V9.7971H4.00152V17.9991H7.70987Z" fill="#051232"/></symbol>
	<symbol id="instagram" viewBox="0 0 19 18" fill="none" xmlns="http://www.w3.org/2000/svg">
	<path fill-rule="evenodd" clip-rule="evenodd" d="M13.8723 0H4.87231C2.39754 0 0.372314 2.02432 0.372314 4.5V13.5C0.372314 15.9748 2.39754 18 4.87231 18H13.8723C16.3471 18 18.3723 15.9748 18.3723 13.5V4.5C18.3723 2.02432 16.3471 0 13.8723 0ZM9.37209 12.7499C7.30073 12.7499 5.622 11.0705 5.622 9.00007C5.622 6.92872 7.30073 5.25 9.37209 5.25C11.4426 5.25 13.1222 6.92872 13.1222 9.00007C13.1222 11.0705 11.4426 12.7499 9.37209 12.7499ZM13.1217 4.125C13.1217 4.74622 13.6248 5.25 14.2467 5.25C14.8686 5.25 15.3717 4.74622 15.3717 4.125C15.3717 3.50378 14.8686 3 14.2467 3C13.6248 3 13.1217 3.50378 13.1217 4.125Z" fill="#051232"/></symbol>
	<symbol id="twitter" viewBox="0 0 21 16" fill="none" xmlns="http://www.w3.org/2000/svg">
	<path d="M18.8808 3.99753C18.8944 4.17253 18.8944 4.34653 18.8944 4.52053C18.8944 9.84553 14.6402 15.9815 6.86545 15.9815C4.47015 15.9815 2.24489 15.3205 0.372314 14.1725C0.712401 14.2095 1.03989 14.2225 1.39362 14.2225C3.37011 14.2225 5.18916 13.5865 6.64292 12.5015C4.78399 12.4645 3.22631 11.3045 2.68889 9.70854C2.95025 9.74553 3.21267 9.77054 3.48767 9.77054C3.8666 9.77054 4.24762 9.72054 4.60135 9.63354C2.66265 9.25953 1.21098 7.63853 1.21098 5.68053V5.63053C1.77465 5.92953 2.42858 6.11653 3.12135 6.14153C1.98248 5.41953 1.23618 4.18453 1.23618 2.78753C1.23618 2.03953 1.44506 1.35353 1.81138 0.755531C3.89284 3.19853 7.02185 4.79553 10.5298 4.97053C10.4647 4.67053 10.4248 4.35953 10.4248 4.04753C10.4248 1.82753 12.31 0.0195312 14.6528 0.0195312C15.8704 0.0195312 16.9694 0.505531 17.7419 1.29153C18.6971 1.11653 19.6124 0.779532 20.4248 0.318531C20.111 1.25353 19.4424 2.03953 18.5659 2.53853C19.4172 2.45053 20.2422 2.22653 21 1.91453C20.4248 2.71253 19.7058 3.42353 18.8808 3.99753Z" fill="#051232"/></symbol>
	<symbol id="trash" xmlns="http://www.w3.org/2000/svg" viewBox="0 -960 960 960" fill="currentColor"><path d="M280-120q-33 0-56.5-23.5T200-200v-520h-40v-80h200v-40h240v40h200v80h-40v520q0 33-23.5 56.5T680-120H280Zm400-600H280v520h400v-520ZM360-280h80v-360h-80v360Zm160 0h80v-360h-80v360ZM280-720v520-520Z"/></symbol>
</svg>
